<svg width="92" height="92" viewBox="0 0 92 92" fill="none" xmlns="http://www.w3.org/2000/svg">
<g filter="url(#filter0_d_2035_16556)">
<g clip-path="url(#clip0_2035_16556)">
<g filter="url(#filter1_iiiii_2035_16556)">
<rect width="52" height="52" transform="translate(20 20)" fill="white"/>
</g>
<g filter="url(#filter2_dii_2035_16556)">
<path d="M51.9846 28.0627V26.5336C51.9846 25.7294 51.3333 25.0781 50.5291 25.0781H47.1907C46.5003 25.0781 45.9054 25.5621 45.7653 26.2379C45.3769 28.1173 44.5873 31.7813 44.0124 33.4105C42.5888 37.4457 40.6422 40.2683 38.1752 41.8811C35.7064 43.4957 32.4317 44.3008 28.3519 44.3008H26.5336C25.7294 44.3008 25.0781 44.9521 25.0781 45.7562V47.6073C25.0781 48.3596 25.6521 48.99 26.4017 49.0564C34.0318 49.7259 40.0163 56.1326 40.0163 63.9364V65.4655C40.0163 66.2697 40.6677 66.921 41.4718 66.921H44.7856C45.487 66.921 46.0882 66.4198 46.2165 65.7302C46.7377 62.9367 47.2935 60.5562 47.9885 58.5877C49.4121 54.5525 51.3587 51.7299 53.8257 50.1171C56.2945 48.5024 59.5692 47.6974 63.649 47.6974H65.4683C66.2724 47.6974 66.9237 47.0461 66.9237 46.242V44.3908C66.9237 43.6386 66.3497 43.0082 65.6002 42.9418C57.97 42.2723 51.9855 35.8656 51.9855 28.0618L51.9846 28.0627Z" fill="url(#paint0_linear_2035_16556)" fill-opacity="0.4" shape-rendering="crispEdges"/>
<g clip-path="url(#paint1_diamond_2035_16556_clip_path)" data-figma-skip-parse="true"><g transform="matrix(-0.00200091 0.0170005 -0.0230322 -0.00271083 46.0009 45.9995)"><rect x="0" y="0" width="1414.78" height="1044.32" fill="url(#paint1_diamond_2035_16556)" opacity="0.5" shape-rendering="crispEdges"/><rect x="0" y="0" width="1414.78" height="1044.32" transform="scale(1 -1)" fill="url(#paint1_diamond_2035_16556)" opacity="0.5" shape-rendering="crispEdges"/><rect x="0" y="0" width="1414.78" height="1044.32" transform="scale(-1 1)" fill="url(#paint1_diamond_2035_16556)" opacity="0.5" shape-rendering="crispEdges"/><rect x="0" y="0" width="1414.78" height="1044.32" transform="scale(-1)" fill="url(#paint1_diamond_2035_16556)" opacity="0.5" shape-rendering="crispEdges"/></g></g><path d="M51.9846 28.0627V26.5336C51.9846 25.7294 51.3333 25.0781 50.5291 25.0781H47.1907C46.5003 25.0781 45.9054 25.5621 45.7653 26.2379C45.3769 28.1173 44.5873 31.7813 44.0124 33.4105C42.5888 37.4457 40.6422 40.2683 38.1752 41.8811C35.7064 43.4957 32.4317 44.3008 28.3519 44.3008H26.5336C25.7294 44.3008 25.0781 44.9521 25.0781 45.7562V47.6073C25.0781 48.3596 25.6521 48.99 26.4017 49.0564C34.0318 49.7259 40.0163 56.1326 40.0163 63.9364V65.4655C40.0163 66.2697 40.6677 66.921 41.4718 66.921H44.7856C45.487 66.921 46.0882 66.4198 46.2165 65.7302C46.7377 62.9367 47.2935 60.5562 47.9885 58.5877C49.4121 54.5525 51.3587 51.7299 53.8257 50.1171C56.2945 48.5024 59.5692 47.6974 63.649 47.6974H65.4683C66.2724 47.6974 66.9237 47.0461 66.9237 46.242V44.3908C66.9237 43.6386 66.3497 43.0082 65.6002 42.9418C57.97 42.2723 51.9855 35.8656 51.9855 28.0618L51.9846 28.0627Z" data-figma-gradient-fill="{&#34;type&#34;:&#34;GRADIENT_DIAMOND&#34;,&#34;stops&#34;:[{&#34;color&#34;:{&#34;r&#34;:0.035294119268655777,&#34;g&#34;:0.41568627953529358,&#34;b&#34;:0.70196080207824707,&#34;a&#34;:1.0},&#34;position&#34;:0.0},{&#34;color&#34;:{&#34;r&#34;:0.90588235855102539,&#34;g&#34;:0.95686274766921997,&#34;b&#34;:0.99607843160629272,&#34;a&#34;:1.0},&#34;position&#34;:1.0}],&#34;stopsVar&#34;:[{&#34;color&#34;:{&#34;r&#34;:0.035294119268655777,&#34;g&#34;:0.41568627953529358,&#34;b&#34;:0.70196080207824707,&#34;a&#34;:1.0},&#34;position&#34;:0.0},{&#34;color&#34;:{&#34;r&#34;:0.90588235855102539,&#34;g&#34;:0.95686274766921997,&#34;b&#34;:0.99607843160629272,&#34;a&#34;:1.0},&#34;position&#34;:1.0}],&#34;transform&#34;:{&#34;m00&#34;:-4.0018143653869629,&#34;m01&#34;:-46.064464569091797,&#34;m02&#34;:71.034042358398438,&#34;m10&#34;:34.000911712646484,&#34;m11&#34;:-5.4216623306274414,&#34;m12&#34;:31.709920883178711},&#34;opacity&#34;:0.50,&#34;blendMode&#34;:&#34;NORMAL&#34;,&#34;visible&#34;:true}" shape-rendering="crispEdges"/>
</g>
</g>
</g>
<defs>
<filter id="filter0_d_2035_16556" x="0" y="0" width="92" height="92" filterUnits="userSpaceOnUse" color-interpolation-filters="sRGB">
<feFlood flood-opacity="0" result="BackgroundImageFix"/>
<feColorMatrix in="SourceAlpha" type="matrix" values="0 0 0 0 0 0 0 0 0 0 0 0 0 0 0 0 0 0 127 0" result="hardAlpha"/>
<feOffset/>
<feGaussianBlur stdDeviation="10"/>
<feComposite in2="hardAlpha" operator="out"/>
<feColorMatrix type="matrix" values="0 0 0 0 0 0 0 0 0 0 0 0 0 0 0 0 0 0 0.08 0"/>
<feBlend mode="normal" in2="BackgroundImageFix" result="effect1_dropShadow_2035_16556"/>
<feBlend mode="normal" in="SourceGraphic" in2="effect1_dropShadow_2035_16556" result="shape"/>
</filter>
<filter id="filter1_iiiii_2035_16556" x="20" y="-1.6" width="62" height="73.6" filterUnits="userSpaceOnUse" color-interpolation-filters="sRGB">
<feFlood flood-opacity="0" result="BackgroundImageFix"/>
<feBlend mode="normal" in="SourceGraphic" in2="BackgroundImageFix" result="shape"/>
<feColorMatrix in="SourceAlpha" type="matrix" values="0 0 0 0 0 0 0 0 0 0 0 0 0 0 0 0 0 0 127 0" result="hardAlpha"/>
<feOffset dy="-20"/>
<feGaussianBlur stdDeviation="5"/>
<feComposite in2="hardAlpha" operator="arithmetic" k2="-1" k3="1"/>
<feColorMatrix type="matrix" values="0 0 0 0 0.619608 0 0 0 0 0.823529 0 0 0 0 0.980392 0 0 0 1 0"/>
<feBlend mode="normal" in2="shape" result="effect1_innerShadow_2035_16556"/>
<feColorMatrix in="SourceAlpha" type="matrix" values="0 0 0 0 0 0 0 0 0 0 0 0 0 0 0 0 0 0 127 0" result="hardAlpha"/>
<feOffset dx="20"/>
<feGaussianBlur stdDeviation="5"/>
<feComposite in2="hardAlpha" operator="arithmetic" k2="-1" k3="1"/>
<feColorMatrix type="matrix" values="0 0 0 0 0.619608 0 0 0 0 0.823529 0 0 0 0 0.980392 0 0 0 1 0"/>
<feBlend mode="normal" in2="effect1_innerShadow_2035_16556" result="effect2_innerShadow_2035_16556"/>
<feColorMatrix in="SourceAlpha" type="matrix" values="0 0 0 0 0 0 0 0 0 0 0 0 0 0 0 0 0 0 127 0" result="hardAlpha"/>
<feOffset dy="-30"/>
<feGaussianBlur stdDeviation="10.8"/>
<feComposite in2="hardAlpha" operator="arithmetic" k2="-1" k3="1"/>
<feColorMatrix type="matrix" values="0 0 0 0 0.619608 0 0 0 0 0.823529 0 0 0 0 0.980392 0 0 0 1 0"/>
<feBlend mode="normal" in2="effect2_innerShadow_2035_16556" result="effect3_innerShadow_2035_16556"/>
<feColorMatrix in="SourceAlpha" type="matrix" values="0 0 0 0 0 0 0 0 0 0 0 0 0 0 0 0 0 0 127 0" result="hardAlpha"/>
<feOffset dy="-23"/>
<feGaussianBlur stdDeviation="8.75"/>
<feComposite in2="hardAlpha" operator="arithmetic" k2="-1" k3="1"/>
<feColorMatrix type="matrix" values="0 0 0 0 0.619608 0 0 0 0 0.823529 0 0 0 0 0.980392 0 0 0 1 0"/>
<feBlend mode="normal" in2="effect3_innerShadow_2035_16556" result="effect4_innerShadow_2035_16556"/>
<feColorMatrix in="SourceAlpha" type="matrix" values="0 0 0 0 0 0 0 0 0 0 0 0 0 0 0 0 0 0 127 0" result="hardAlpha"/>
<feOffset dy="-10"/>
<feGaussianBlur stdDeviation="8.75"/>
<feComposite in2="hardAlpha" operator="arithmetic" k2="-1" k3="1"/>
<feColorMatrix type="matrix" values="0 0 0 0 0.0352941 0 0 0 0 0.415686 0 0 0 0 0.701961 0 0 0 0.66 0"/>
<feBlend mode="normal" in2="effect4_innerShadow_2035_16556" result="effect5_innerShadow_2035_16556"/>
</filter>
<filter id="filter2_dii_2035_16556" x="10.8781" y="10.4781" width="70.2456" height="70.6428" filterUnits="userSpaceOnUse" color-interpolation-filters="sRGB">
<feFlood flood-opacity="0" result="BackgroundImageFix"/>
<feColorMatrix in="SourceAlpha" type="matrix" values="0 0 0 0 0 0 0 0 0 0 0 0 0 0 0 0 0 0 127 0" result="hardAlpha"/>
<feOffset/>
<feGaussianBlur stdDeviation="7.1"/>
<feComposite in2="hardAlpha" operator="out"/>
<feColorMatrix type="matrix" values="0 0 0 0 0.619608 0 0 0 0 0.823529 0 0 0 0 0.980392 0 0 0 0.5 0"/>
<feBlend mode="normal" in2="BackgroundImageFix" result="effect1_dropShadow_2035_16556"/>
<feBlend mode="normal" in="SourceGraphic" in2="effect1_dropShadow_2035_16556" result="shape"/>
<feColorMatrix in="SourceAlpha" type="matrix" values="0 0 0 0 0 0 0 0 0 0 0 0 0 0 0 0 0 0 127 0" result="hardAlpha"/>
<feOffset dy="-21"/>
<feGaussianBlur stdDeviation="7.3"/>
<feComposite in2="hardAlpha" operator="arithmetic" k2="-1" k3="1"/>
<feColorMatrix type="matrix" values="0 0 0 0 0.0352941 0 0 0 0 0.415686 0 0 0 0 0.701961 0 0 0 0.66 0"/>
<feBlend mode="normal" in2="shape" result="effect2_innerShadow_2035_16556"/>
<feColorMatrix in="SourceAlpha" type="matrix" values="0 0 0 0 0 0 0 0 0 0 0 0 0 0 0 0 0 0 127 0" result="hardAlpha"/>
<feOffset/>
<feGaussianBlur stdDeviation="2"/>
<feComposite in2="hardAlpha" operator="arithmetic" k2="-1" k3="1"/>
<feColorMatrix type="matrix" values="0 0 0 0 1 0 0 0 0 1 0 0 0 0 1 0 0 0 0.41 0"/>
<feBlend mode="normal" in2="effect2_innerShadow_2035_16556" result="effect3_innerShadow_2035_16556"/>
</filter>
<clipPath id="paint1_diamond_2035_16556_clip_path"><path d="M51.9846 28.0627V26.5336C51.9846 25.7294 51.3333 25.0781 50.5291 25.0781H47.1907C46.5003 25.0781 45.9054 25.5621 45.7653 26.2379C45.3769 28.1173 44.5873 31.7813 44.0124 33.4105C42.5888 37.4457 40.6422 40.2683 38.1752 41.8811C35.7064 43.4957 32.4317 44.3008 28.3519 44.3008H26.5336C25.7294 44.3008 25.0781 44.9521 25.0781 45.7562V47.6073C25.0781 48.3596 25.6521 48.99 26.4017 49.0564C34.0318 49.7259 40.0163 56.1326 40.0163 63.9364V65.4655C40.0163 66.2697 40.6677 66.921 41.4718 66.921H44.7856C45.487 66.921 46.0882 66.4198 46.2165 65.7302C46.7377 62.9367 47.2935 60.5562 47.9885 58.5877C49.4121 54.5525 51.3587 51.7299 53.8257 50.1171C56.2945 48.5024 59.5692 47.6974 63.649 47.6974H65.4683C66.2724 47.6974 66.9237 47.0461 66.9237 46.242V44.3908C66.9237 43.6386 66.3497 43.0082 65.6002 42.9418C57.97 42.2723 51.9855 35.8656 51.9855 28.0618L51.9846 28.0627Z"/></clipPath><linearGradient id="paint0_linear_2035_16556" x1="46.0009" y1="-14.6667" x2="46" y2="46" gradientUnits="userSpaceOnUse">
<stop stop-color="#E7F4FE"/>
<stop offset="1" stop-color="#096AB3"/>
</linearGradient>
<linearGradient id="paint1_diamond_2035_16556" x1="0" y1="0" x2="500" y2="500" gradientUnits="userSpaceOnUse">
<stop stop-color="#096AB3"/>
<stop offset="1" stop-color="#E7F4FE"/>
</linearGradient>
<clipPath id="clip0_2035_16556">
<rect x="20" y="20" width="52" height="52" rx="24" fill="white"/>
</clipPath>
</defs>
</svg>
